<svg xmlns="http://www.w3.org/2000/svg" xmlns:xlink="http://www.w3.org/1999/xlink" width="413.127" height="413.752" viewBox="0 0 413.127 413.752">
  <defs>
    <clipPath id="clip-path">
      <rect id="Rectangle_444" data-name="Rectangle 444" width="412.492" height="371.826" fill="none"/>
    </clipPath>
  </defs>
  <g id="Group_8857" data-name="Group 8857" transform="translate(-1064 -298.075)">
    <g id="Group_8710" data-name="Group 8710" transform="translate(1088.021 298.074)">
      <path id="Path_3836" data-name="Path 3836" d="M546.144,3.946c-54.49-10.934-113.234.9-157.585,34.931C338.311,77.433,320.4,142.308,326.909,204.063c11.616,110.162,74.435,176.2,187.409,177.686,71.9.946,156.835-41.913,189.257-97.449,14.363-24.6,14.283-65.676,3.043-93.206-13.2-32.321-31.474-51.217-61.753-65.323C566.377,89.2,610.131,16.786,546.144,3.946" transform="translate(-325.624 0.001)" fill="#e6e6e6"/>
      <path id="Path_3835" data-name="Path 3835" d="M400.077,168.4c-24.468-5.646-55.062-36.415-55.127-60.4-.16-58.809,52.635-11.914,70.406,21.194s20.479,47.46-15.279,39.208" transform="translate(-47.082 -46.389)" fill="#e6e6e6"/>
    </g>
    <g id="Group_8727" data-name="Group 8727" transform="translate(1064 340)">
      <rect id="Rectangle_392" data-name="Rectangle 392" width="412.492" height="0.751" transform="translate(0 369.892)"/>
      <rect id="Rectangle_393" data-name="Rectangle 393" width="198.52" height="15.215" transform="translate(135.937 247.876)" fill="#333"/>
      <rect id="Rectangle_394" data-name="Rectangle 394" width="3.381" height="63.396" transform="translate(278.307 295.574)" fill="#fff"/>
      <g id="Group_8726" data-name="Group 8726">
        <g id="Group_8725" data-name="Group 8725" clip-path="url(#clip-path)">
          <path id="Path_3847" data-name="Path 3847" d="M781.208,852.872h-.375a2.955,2.955,0,0,0-2.952-2.952H753.005a3.331,3.331,0,0,1-3.327-3.327V777.521h.375v69.072a2.955,2.955,0,0,0,2.952,2.952h24.875a3.331,3.331,0,0,1,3.327,3.327" transform="translate(-468.298 -485.691)"/>
          <path id="Path_3848" data-name="Path 3848" d="M658.04,852.872h-.375a3.331,3.331,0,0,1,3.327-3.327h24.876a2.955,2.955,0,0,0,2.952-2.952V777.521h.375v69.072a3.331,3.331,0,0,1-3.327,3.327H660.992a2.955,2.955,0,0,0-2.952,2.952" transform="translate(-410.821 -485.691)"/>
          <path id="Path_3849" data-name="Path 3849" d="M656.4,975.788a2.657,2.657,0,1,1-2.657-2.657,2.657,2.657,0,0,1,2.657,2.657" transform="translate(-406.712 -607.882)" fill="#fff"/>
          <path id="Path_3850" data-name="Path 3850" d="M653.431,978.32a2.844,2.844,0,1,1,2.844-2.844,2.847,2.847,0,0,1-2.844,2.844m0-5.313a2.469,2.469,0,1,0,2.469,2.469,2.472,2.472,0,0,0-2.469-2.469" transform="translate(-406.4 -607.57)"/>
          <path id="Path_3851" data-name="Path 3851" d="M743.266,975.788a2.657,2.657,0,1,1-2.657-2.657,2.657,2.657,0,0,1,2.657,2.657" transform="translate(-460.974 -607.882)" fill="#fff"/>
          <path id="Path_3852" data-name="Path 3852" d="M740.3,978.32a2.844,2.844,0,1,1,2.844-2.844,2.848,2.848,0,0,1-2.844,2.844m0-5.313a2.469,2.469,0,1,0,2.469,2.469,2.472,2.472,0,0,0-2.469-2.469" transform="translate(-460.661 -607.57)"/>
          <path id="Path_3853" data-name="Path 3853" d="M831.418,975.788a2.657,2.657,0,1,1-2.657-2.657,2.657,2.657,0,0,1,2.657,2.657" transform="translate(-516.04 -607.882)" fill="#fff"/>
          <path id="Path_3854" data-name="Path 3854" d="M828.449,978.32a2.844,2.844,0,1,1,2.844-2.844,2.847,2.847,0,0,1-2.844,2.844m0-5.313a2.469,2.469,0,1,0,2.469,2.469,2.472,2.472,0,0,0-2.469-2.469" transform="translate(-515.727 -607.57)"/>
          <rect id="Rectangle_395" data-name="Rectangle 395" width="213.011" height="6.279" transform="translate(127.001 244.736)"/>
          <path id="Path_3855" data-name="Path 3855" d="M579.635,898.231c.2,2.6.316,4.621.316,5.843,0,8.587-2.862,18.128-2.862,18.128v4.77l13.357-4.293s.477-5.724,1.431-12.4c.276-1.934.953-5.993,1.775-11.01a71.261,71.261,0,0,1-14.017-1.035" transform="translate(-360.488 -561.095)" fill="#a8675a"/>
          <path id="Path_3856" data-name="Path 3856" d="M547.563,963.1c10.322-.175,15.571-.7,15.921-2.1a8.057,8.057,0,0,0-.231-2.542c-.5-2.637-1.519-6.206-1.519-6.206s-2.275,1.05-4.724,2.1-5.35.35-5.874-1.749a9.648,9.648,0,0,0-2.274-3.849s-2.624,2.1-7,5.424c-4.2,3.189-10.725,3-11.691,5.446a2.483,2.483,0,0,0-.105.327c-.7,2.8,7.173,3.324,17.495,3.149" transform="translate(-331.089 -592.652)"/>
          <path id="Path_3857" data-name="Path 3857" d="M547.563,979.247c10.322-.175,15.571-.7,15.921-2.1a8.057,8.057,0,0,0-.231-2.542c-2.777,1.151-7.945,2.5-16.565,2.192-6.975-.252-12.577-.665-16.515-1.027a2.483,2.483,0,0,0-.105.327c-.7,2.8,7.173,3.324,17.495,3.149" transform="translate(-331.089 -608.803)" fill="#fff"/>
          <path id="Path_3858" data-name="Path 3858" d="M471.973,884.68c-.636,2.525-1.17,4.482-1.56,5.64-2.732,8.14-8.482,16.274-8.482,16.274l-1.518,4.522,14.029.181s2.274-5.275,5.3-11.3c.878-1.746,2.81-5.377,5.186-9.873a71.232,71.232,0,0,1-12.96-5.442" transform="translate(-287.604 -552.63)" fill="#a8675a"/>
          <path id="Path_3859" data-name="Path 3859" d="M429.938,944.594c9.841,3.119,14.984,4.292,15.761,3.076a8.052,8.052,0,0,0,.59-2.483c.366-2.658.535-6.366.535-6.366s-2.49.271-5.146.487-5.183-1.371-5.012-3.528a9.648,9.648,0,0,0-.931-4.373s-3.156,1.155-8.36,2.915c-4.992,1.688-11.121-.572-12.816,1.442a2.46,2.46,0,0,0-.2.277c-1.554,2.431,5.742,5.434,15.583,8.553" transform="translate(-258.702 -581.818)"/>
          <path id="Path_3860" data-name="Path 3860" d="M429.938,951.846c9.841,3.119,14.984,4.292,15.761,3.076a8.053,8.053,0,0,0,.59-2.483c-3,.208-8.328-.155-16.4-3.193-6.532-2.459-11.712-4.633-15.33-6.229a2.459,2.459,0,0,0-.2.277c-1.554,2.431,5.742,5.434,15.583,8.553" transform="translate(-258.702 -589.07)" fill="#fff"/>
          <path id="Path_3861" data-name="Path 3861" d="M643.645,608.641c14.334-11.994,24.465-48.117,26.748-65.2,2.267-16.959,5.29-26.251,10.427-38.439a9.21,9.21,0,0,1,8.439-5.735h54.56a2.727,2.727,0,0,1,2.3,1.259,3.008,3.008,0,0,1,.255,2.845c-4.2,9.886-8.709,22.082-13.162,44.194-1.682,8.352-2.029,16.848-2.365,25.065-.465,11.383-.9,22.135-5.124,29.335a13.4,13.4,0,0,1-11.469,6.68Z" transform="translate(-402.063 -311.873)"/>
          <path id="Path_3862" data-name="Path 3862" d="M742.037,498.264h-54.56a9.583,9.583,0,0,0-8.785,5.965c-5.166,12.255-8.183,21.55-10.453,38.536-2.194,16.416-12.549,54.288-27.447,65.628h71.682a13.7,13.7,0,0,0,11.793-6.866c7.235-12.346,3.446-34.227,7.533-54.516,4.106-20.388,8.278-32.691,13.139-44.12a3.286,3.286,0,0,0-2.9-4.626m2.21,4.332c-4.212,9.9-8.725,22.122-13.185,44.266-1.688,8.382-2.036,16.893-2.372,25.124-.463,11.335-.9,22.041-5.072,29.16a13.022,13.022,0,0,1-11.146,6.494H642.864c14.012-12.681,23.869-47.945,26.118-64.777,2.261-16.917,5.276-26.186,10.4-38.344a8.835,8.835,0,0,1,8.093-5.506h54.56a2.357,2.357,0,0,1,1.987,1.091,2.634,2.634,0,0,1,.223,2.491" transform="translate(-400.28 -311.249)"/>
          <path id="Path_3863" data-name="Path 3863" d="M662.059,604.482c11.021-9.179,12.669-32.71,13.881-50.009.349-4.988.651-9.3,1.126-12.713,2.266-16.317,5.289-25.255,10.426-36.981a9.214,9.214,0,0,1,8.441-5.515h54.56a2.795,2.795,0,0,1,2.558,3.924c-4.205,9.514-8.71,21.252-13.164,42.529-1.683,8.039-2.03,16.216-2.365,24.123-.465,10.95-.9,21.292-5.12,28.215a13.5,13.5,0,0,1-11.473,6.426Z" transform="translate(-413.566 -311.873)" fill="#e45c2b"/>
          <path id="Path_3864" data-name="Path 3864" d="M748.68,498.263h-54.56a9.59,9.59,0,0,0-8.785,5.74c-5.166,11.792-8.183,20.736-10.453,37.08-2.194,15.8-.825,52.237-15.724,63.149h59.958a13.8,13.8,0,0,0,11.793-6.606c7.235-11.88,3.446-32.934,7.533-52.457,4.106-19.618,8.278-31.456,13.139-42.454a3.17,3.17,0,0,0-2.9-4.452m2.214,4.148c-4.213,9.533-8.727,21.292-13.188,42.6-1.689,8.069-2.037,16.261-2.373,24.184-.463,10.9-.9,21.2-5.066,28.036a13.126,13.126,0,0,1-11.152,6.246H661.241c10.465-9.7,12.072-32.642,13.261-49.607.349-4.981.65-9.283,1.123-12.688,2.26-16.273,5.275-25.187,10.4-36.882a8.84,8.84,0,0,1,8.1-5.29h54.56a2.42,2.42,0,0,1,2.214,3.4" transform="translate(-411.753 -311.248)"/>
          <path id="Path_3865" data-name="Path 3865" d="M710.394,382.984s-3.023-3.023-2.591-4.75c.169-.674.982-1.9.864-2.591-.184-1.079-.917-2.052-.432-3.023.864-1.727,1.3-.864,2.591-2.159s1.054-2.038,3.023-3.023c.864-.432,1.727,0,3.023,0s1.3-1.727,3.023-1.727,1.3.864,2.591.864,2.159-1.3,3.886-.432,1.3.864,2.159,1.727,3.023,0,4.318.863.864,3.023,1.3,4.318,1.3,1.3,2.159,3.023-.864,2.591-.432,4.318,1.727,2.159,1.3,3.455a27.489,27.489,0,0,1-2.591,4.318l-6.909-2.159Z" transform="translate(-442.114 -228.448)"/>
          <path id="Path_3866" data-name="Path 3866" d="M714.2,400.343s.432,22.885,9.5,22.885,15.328-11.874,14.465-18.351c-2.159.432-3.454.186-3.886-2.4s-3.623-2.075-4.672-4.174c-.432-.863-2.236-1.686-3.532-1.686s-4.41.863-5.274.863-2.93-1.049-4.225-.185-1.3,2.4-2.375,3.053" transform="translate(-446.137 -247.751)" fill="#a8675a"/>
          <path id="Path_3867" data-name="Path 3867" d="M766.953,419s2.591-2.591,4.75-.864,1.727,6.045-1.3,6.045S766.953,419,766.953,419" transform="translate(-479.09 -260.826)" fill="#a8675a"/>
          <path id="Path_3868" data-name="Path 3868" d="M714.938,423.1s-3.49-1.115-4.617,1.41,1.236,6.164,3.922,4.778.695-6.189.695-6.189" transform="translate(-443.533 -264.146)" fill="#a8675a"/>
          <path id="Path_3869" data-name="Path 3869" d="M773.24,434.07a2.6,2.6,0,0,0-.36,1.233c0,.864-.432,2.159,0,2.159a4.638,4.638,0,0,0,2.159-2.684,1.292,1.292,0,0,0-.026-.284c-.115-.513-1.642-.656-1.772-.424" transform="translate(-482.672 -271.081)"/>
          <path id="Path_3870" data-name="Path 3870" d="M752.367,455.454l-10.836,8.936-9.5-6.909s3.722-4.961,4.284-8.411c.013-.078.026-.151.035-.224a8.32,8.32,0,0,0-.246-3.161,11.076,11.076,0,0,0-1.481-3.316l13.385-9.931a107.847,107.847,0,0,0-.864,12.09c0,9.236,5.223,10.927,5.223,10.927" transform="translate(-457.275 -270.129)" fill="#a8675a"/>
          <path id="Path_3871" data-name="Path 3871" d="M751.024,455.215c-2.962,4.49-5.7,6.861-7.932,8.083.013-.078.026-.151.035-.225a8.314,8.314,0,0,0-.246-3.161,14.636,14.636,0,0,0,8.144-4.7" transform="translate(-464.052 -284.357)"/>
          <path id="Path_3872" data-name="Path 3872" d="M731.052,431.875a2.4,2.4,0,0,1-1.047-.222c-.5-.24-.134-1.111.326-2.213.158-.377.32-.767.456-1.151a10.8,10.8,0,0,0,.548-2.512.141.141,0,0,1,.281.02,10.9,10.9,0,0,1-.564,2.586c-.139.391-.3.784-.462,1.165-.321.769-.721,1.727-.464,1.851a2.969,2.969,0,0,0,2.122-.035.141.141,0,1,1,.109.26,3.742,3.742,0,0,1-1.306.25" transform="translate(-455.86 -265.887)"/>
          <path id="Path_3873" data-name="Path 3873" d="M743.662,423.845c.009.624.37,1.125.807,1.119s.783-.517.775-1.141-.37-1.125-.807-1.118-.784.517-.775,1.141" transform="translate(-464.54 -264.049)"/>
          <path id="Path_3874" data-name="Path 3874" d="M722.485,423.908c.009.624.37,1.125.807,1.118s.784-.517.775-1.141-.37-1.125-.807-1.118-.784.517-.775,1.141" transform="translate(-451.312 -264.088)"/>
          <path id="Path_3875" data-name="Path 3875" d="M735.78,448.1a9.546,9.546,0,0,1-5.424.078c2.789,5.385,5.424-.078,5.424-.078" transform="translate(-456.229 -279.912)" fill="#fff"/>
          <path id="Path_3876" data-name="Path 3876" d="M741.458,415.521a.469.469,0,0,1-.113-.924c.075-.019.075-.019,4.2-.066a.477.477,0,0,1,.474.464.469.469,0,0,1-.464.474c-1.546.018-3.882.045-4.07.051h-.031" transform="translate(-462.87 -258.943)"/>
          <path id="Path_3877" data-name="Path 3877" d="M716.027,416.679a.469.469,0,0,1-.013-.938l3.965-.113a.462.462,0,0,1,.482.456.47.47,0,0,1-.456.482l-3.965.113h-.013" transform="translate(-446.985 -259.628)"/>
          <path id="Path_3878" data-name="Path 3878" d="M774.265,422.651a.186.186,0,0,1-.133-.055c-1.163-1.162-2.712-.031-2.778.018a.188.188,0,1,1-.225-.3c.018-.014,1.873-1.377,3.268.017a.188.188,0,0,1-.133.321" transform="translate(-481.652 -263.423)"/>
          <path id="Path_3879" data-name="Path 3879" d="M599.717,654.388s1.691,32.845-9.419,37.675S542,699.55,542,699.55s1.449,12.559,0,22.943-9.9,30.913-9.9,30.913L517.121,752.2l3.381-54.1s-2.9,10.868-7,16.422-18.6,33.811-18.6,33.811l-14.974-5.313s16.664-58.2,24.634-65.449S561.8,646.9,561.8,646.9Z" transform="translate(-299.795 -404.097)"/>
          <path id="Path_3880" data-name="Path 3880" d="M564.048,503.4a9.974,9.974,0,0,1,6.9-2.724,8.889,8.889,0,0,1,1.081.068l-.1-.116c-7.281-8.431-10.347-11.114-10.347-11.114s-1.15-13.413-2.3-12.264-1.916,5.365-1.916,5.365a45.332,45.332,0,0,0-2.3-4.982c-.766-1.15-3.066-8.048-4.215-7.664s.383,8.048.383,8.048-2.682-8.431-3.832-8.048,1.533,9.2,1.533,9.2-4.216-7.665-5.365-7.281,2.3,8.431,2.3,8.431-4.6-3.833-5.748-3.449,3.832,6.132,4.215,6.9,2.3,3.066,3.833,5.365a37.425,37.425,0,0,0,4.982,5.365s4.013,7.062,8.195,13.915a10.173,10.173,0,0,1,2.706-5.011" transform="translate(-337.286 -293.563)" fill="#a8675a"/>
          <path id="Path_3881" data-name="Path 3881" d="M643.575,489.255s1.932,4.589,8.211,4.83a10.442,10.442,0,0,0,9.177-4.83s14.249,2.657,17.63,8.694,10.868,52.166,5.555,56.755S650.1,563.4,650.1,563.4s-4.347-6.521-4.83-8.694-.724-1.207-.724-1.207-10.143,2.657-15.7.724-6.279-5.313-6.279-5.313,3.381-18.838,4.589-25.358c-11.592,13.283-15.215,18.355-20.045,18.113S596.481,532.243,593.1,525a74.219,74.219,0,0,0-5.072-9.66c6.038-1.69,10.626-7.487,10.626-7.487L608.8,518.719s18.6-23.909,22.7-26.083,12.076-3.381,12.076-3.381" transform="translate(-367.321 -305.621)" fill="#fff"/>
          <path id="Path_3882" data-name="Path 3882" d="M587.275,720.93a.188.188,0,0,1-.187-.168c-.008-.081-.8-8.23,3.548-13.78,4.322-5.523,44.018-26.221,45.706-27.1a.188.188,0,0,1,.173.333c-.413.215-41.312,21.539-45.584,27-4.249,5.429-3.479,13.43-3.47,13.51a.187.187,0,0,1-.167.206h-.02" transform="translate(-366.696 -424.686)" fill="#fff"/>
          <path id="Path_3883" data-name="Path 3883" d="M740.788,577.031l-.183-.328,21.751-12.137c-.139-1.656-1.593-19.672.013-27.706l1.69-8.453.368.074-1.69,8.453c-1.666,8.33-.014,27.528,0,27.721l.011.121Z" transform="translate(-462.631 -330.079)"/>
          <rect id="Rectangle_396" data-name="Rectangle 396" width="19.711" height="0.375" transform="matrix(0.122, -0.993, 0.993, 0.122, 259.77, 217.785)"/>
          <rect id="Rectangle_397" data-name="Rectangle 397" width="2.657" height="124.377" transform="translate(134.73 246.185)"/>
          <rect id="Rectangle_398" data-name="Rectangle 398" width="2.657" height="124.377" transform="translate(331.801 246.185)"/>
          <path id="Path_3884" data-name="Path 3884" d="M727.757,692.51H663.274a2.536,2.536,0,1,1,0-5.071h64.483a2.536,2.536,0,1,1,0,5.071" transform="translate(-412.741 -429.42)" fill="#fff"/>
          <path id="Path_3885" data-name="Path 3885" d="M713.693,725.619a.563.563,0,0,1-.557-.488l-4.347-32.121a.563.563,0,0,1,1.115-.151l4.347,32.121a.562.562,0,0,1-.482.633.528.528,0,0,1-.076.005" transform="translate(-442.753 -432.501)" fill="#fff"/>
          <path id="Path_3886" data-name="Path 3886" d="M784.632,725.619a.527.527,0,0,1-.076-.005.562.562,0,0,1-.482-.633l4.347-32.121a.563.563,0,1,1,1.115.151l-4.347,32.121a.563.563,0,0,1-.557.488" transform="translate(-489.781 -432.501)" fill="#fff"/>
          <path id="Path_3887" data-name="Path 3887" d="M694.566,665.029c-2.043-1.763-2.84-4.724-2.895-7.319-4.752,2.657-9.639,5.208-12.11,5.545-3.608.492-6.463-2.041-10.059-.821s-10.726,7.3-8.71,7.76,7.586-2.859,11.225-1.529,5.26,2.205,10.872,1.441c2.436-.332,8.954-1.013,15.812-1.8q-2.142-1.552-4.135-3.274" transform="translate(-412.555 -410.849)" fill="#a8675a"/>
          <path id="Path_3888" data-name="Path 3888" d="M478.144,590.11h-53.5l-11.17-33.62a1.76,1.76,0,0,1,1.67-2.315h48.175a3.994,3.994,0,0,1,3.79,2.735Z" transform="translate(-258.229 -346.174)" fill="#fff"/>
          <path id="Path_3889" data-name="Path 3889" d="M478.09,589.985H424.2l-11.212-33.749a1.947,1.947,0,0,1,1.848-2.561H463.01a4.175,4.175,0,0,1,3.968,2.863Zm-53.62-.375h53.1l-10.948-32.954a3.8,3.8,0,0,0-3.612-2.606H414.835a1.572,1.572,0,0,0-1.492,2.068Z" transform="translate(-257.916 -345.862)"/>
          <path id="Path_3890" data-name="Path 3890" d="M483.144,590.11h-53.5l-11.17-33.62a1.76,1.76,0,0,1,1.67-2.315h48.175a3.994,3.994,0,0,1,3.79,2.735Z" transform="translate(-261.352 -346.174)"/>
          <path id="Path_3891" data-name="Path 3891" d="M512.584,646.533l-68.619-.155a.129.129,0,0,1-.1-.205L445.1,644.5h67.48Z" transform="translate(-277.25 -402.598)" fill="#fff"/>
          <path id="Path_3892" data-name="Path 3892" d="M512.459,646.409h-.188l-68.619-.156a.316.316,0,0,1-.253-.5L444.7,644h67.762Zm-68.689-.531,68.313.155v-1.657h-67.2Z" transform="translate(-276.937 -402.286)"/>
          <path id="Path_3893" data-name="Path 3893" d="M485.428,570h-28.9l-.925-3h28.9Z" transform="translate(-284.599 -354.185)" fill="#ccc"/>
          <path id="Path_3894" data-name="Path 3894" d="M490.05,585h-28.9l-.925-3h28.9Z" transform="translate(-287.486 -363.555)" fill="#ccc"/>
          <path id="Path_3895" data-name="Path 3895" d="M497.331,608.635h-28.9L464.845,597h28.9Z" transform="translate(-290.373 -372.925)" fill="#ccc"/>
          <path id="Path_3896" data-name="Path 3896" d="M107.518,393.251H40.225a8.558,8.558,0,0,1-8.558-8.558V336.505a8.558,8.558,0,0,1,8.558-8.558h67.292a8.558,8.558,0,0,1,8.558,8.558v48.187a8.558,8.558,0,0,1-8.558,8.558" transform="translate(-19.781 -204.857)" fill="#fff"/>
          <path id="Path_3897" data-name="Path 3897" d="M109.288,393.155H37.978a6.7,6.7,0,0,1-6.693-6.693v-52.2a6.7,6.7,0,0,1,6.693-6.693h71.309a6.7,6.7,0,0,1,6.694,6.693v52.2a6.7,6.7,0,0,1-6.694,6.693m-71.309-65.3a6.414,6.414,0,0,0-6.406,6.406v52.2a6.414,6.414,0,0,0,6.406,6.406h71.309a6.413,6.413,0,0,0,6.406-6.406v-52.2a6.413,6.413,0,0,0-6.406-6.406Z" transform="translate(-19.543 -204.618)"/>
          <rect id="Rectangle_399" data-name="Rectangle 399" width="62.621" height="5.497" transform="translate(19.841 139.319)" fill="#f2f2f2"/>
          <rect id="Rectangle_400" data-name="Rectangle 400" width="62.621" height="5.497" transform="translate(19.985 153.519)" fill="#f2f2f2"/>
          <rect id="Rectangle_401" data-name="Rectangle 401" width="62.621" height="5.497" transform="translate(20.128 167.718)" fill="#f2f2f2"/>
          <path id="Path_3898" data-name="Path 3898" d="M120.2,399.167H53.049v-47.69a.144.144,0,0,1,.288,0v47.4H120.2a.144.144,0,1,1,0,.287" transform="translate(-33.138 -219.466)"/>
          <rect id="Rectangle_402" data-name="Rectangle 402" width="6.628" height="22.572" transform="translate(44.667 156.986)" fill="#ffbd26"/>
          <path id="Path_3899" data-name="Path 3899" d="M125.54,440.732h-6.916V417.873h6.916Zm-6.628-.287h6.341V418.16h-6.341Z" transform="translate(-74.1 -261.031)"/>
          <rect id="Rectangle_403" data-name="Rectangle 403" width="6.628" height="15.103" transform="translate(35.072 164.454)" fill="#e45c2b"/>
          <path id="Path_3900" data-name="Path 3900" d="M99.975,453.162H93.059V437.771h6.916Zm-6.628-.287h6.341V438.058H93.347Z" transform="translate(-58.131 -273.461)"/>
          <rect id="Rectangle_404" data-name="Rectangle 404" width="6.628" height="9.104" transform="translate(25.8 170.453)"/>
          <rect id="Rectangle_405" data-name="Rectangle 405" width="6.628" height="28.604" transform="translate(72.818 150.953)" fill="#ffbd26"/>
          <path id="Path_3901" data-name="Path 3901" d="M200.542,430.692h-6.916V401.8h6.916Zm-6.628-.287h6.341V402.088h-6.341Z" transform="translate(-120.952 -250.991)"/>
          <rect id="Rectangle_406" data-name="Rectangle 406" width="6.628" height="16.827" transform="translate(63.223 162.731)" fill="#e45c2b"/>
          <path id="Path_3902" data-name="Path 3902" d="M174.978,450.293h-6.916V433.179h6.916Zm-6.628-.287h6.341V433.466h-6.341Z" transform="translate(-104.983 -270.592)"/>
          <rect id="Rectangle_407" data-name="Rectangle 407" width="6.628" height="14.385" transform="translate(53.95 165.172)"/>
          <path id="Path_3903" data-name="Path 3903" d="M65.378,404.29l-.183-.221,23.672-19.575,9.194,8.62,18.575-14.574.177.226L98.044,393.492l-9.19-8.615Z" transform="translate(-40.725 -236.461)"/>
          <path id="Path_3904" data-name="Path 3904" d="M197.72,380.9l-.279-.069.524-2.1-2.38.264-.032-.285,2.791-.31Z" transform="translate(-122.156 -236.374)"/>
          <rect id="Rectangle_408" data-name="Rectangle 408" width="1.787" height="0.973" transform="translate(85.191 139.463)"/>
          <rect id="Rectangle_409" data-name="Rectangle 409" width="1.787" height="0.973" transform="translate(85.247 147.37)"/>
          <rect id="Rectangle_410" data-name="Rectangle 410" width="1.787" height="0.973" transform="translate(85.303 155.278)"/>
          <rect id="Rectangle_411" data-name="Rectangle 411" width="1.787" height="0.973" transform="translate(85.359 163.185)"/>
          <rect id="Rectangle_412" data-name="Rectangle 412" width="1.787" height="0.973" transform="translate(85.415 171.093)"/>
          <path id="Path_3905" data-name="Path 3905" d="M238.375,131.947H99.36A13.461,13.461,0,0,1,85.9,118.486V13.843A13.461,13.461,0,0,1,99.36.382H238.375a13.461,13.461,0,0,1,13.461,13.461V118.486a13.461,13.461,0,0,1-13.461,13.461" transform="translate(-53.658 -0.239)" fill="#e6e6e6"/>
          <rect id="Rectangle_413" data-name="Rectangle 413" width="86.377" height="92.891" transform="translate(40.38 27.282)" fill="#fff"/>
          <rect id="Rectangle_414" data-name="Rectangle 414" width="58.266" height="33.404" transform="translate(131.485 27.282)" fill="#fff"/>
          <rect id="Rectangle_415" data-name="Rectangle 415" width="58.266" height="14.795" transform="translate(131.485 65.719)" fill="#fff"/>
          <rect id="Rectangle_416" data-name="Rectangle 416" width="58.266" height="14.795" transform="translate(131.485 85.396)" fill="#fff"/>
          <rect id="Rectangle_417" data-name="Rectangle 417" width="58.266" height="14.795" transform="translate(131.485 105.072)" fill="#fff"/>
          <path id="Path_3906" data-name="Path 3906" d="M216.247,169.925a9.7,9.7,0,1,1-9.7-9.7,9.7,9.7,0,0,1,9.7,9.7" transform="translate(-122.964 -100.087)" fill="#fff"/>
          <path id="Path_3907" data-name="Path 3907" d="M242.547,149.463a12.756,12.756,0,0,0-1.679-20.291l10.184-16.925a32.509,32.509,0,0,1,4.326,52.234Z" transform="translate(-150.462 -70.117)" fill="#fff"/>
          <path id="Path_3908" data-name="Path 3908" d="M250.3,111.193l-10.479,17.416a12.469,12.469,0,0,1,1.669,20.166l13.2,15.453a32.8,32.8,0,0,0-4.392-53.035m4.452,52.221-12.461-14.585a13.043,13.043,0,0,0-1.689-20.405l9.89-16.437a32.222,32.222,0,0,1,4.259,51.428" transform="translate(-149.809 -69.458)"/>
          <path id="Path_3909" data-name="Path 3909" d="M191.811,214.315a12.411,12.411,0,0,1-7.055-2.188l-11.5,16.759a32.795,32.795,0,0,0,39.855-2.11l-13.2-15.453a12.418,12.418,0,0,1-8.1,2.991" transform="translate(-108.228 -132.007)" fill="#ffbd26"/>
          <path id="Path_3910" data-name="Path 3910" d="M163.589,201.77l-17.914,9.605a32.948,32.948,0,0,0,10.353,11.543l11.5-16.759a12.526,12.526,0,0,1-3.937-4.389" transform="translate(-90.998 -126.039)"/>
          <path id="Path_3911" data-name="Path 3911" d="M193,119.019a12.414,12.414,0,0,1,6.43,1.784l10.479-17.416a32.816,32.816,0,0,0-34.75.584l11.058,17.056A12.407,12.407,0,0,1,193,119.019" transform="translate(-109.415 -61.652)" fill="#e45c2b"/>
          <path id="Path_3912" data-name="Path 3912" d="M139.5,155.9a32.668,32.668,0,0,1,10.965-42.624l10.9,16.815a12.617,12.617,0,0,0-4.2,16.339Z" transform="translate(-84.768 -70.762)" fill="#e6e6e6"/>
          <path id="Path_3913" data-name="Path 3913" d="M161.329,129.805l-11.057-17.056a32.811,32.811,0,0,0-11.066,43.018l17.914-9.605a12.472,12.472,0,0,1,4.209-16.356m-5.975,10.463a12.787,12.787,0,0,0,1.38,5.775l-17.41,9.335a32.525,32.525,0,0,1,10.863-42.23l10.746,16.576a12.72,12.72,0,0,0-5.58,10.545" transform="translate(-84.529 -70.43)"/>
          <path id="Path_3914" data-name="Path 3914" d="M220.2,181.106v.986h-.428v-.977a3.216,3.216,0,0,1-2.048-.78l.248-.488a2.922,2.922,0,0,0,1.8.72v-2.254c-.943-.232-1.9-.523-1.9-1.654,0-.823.591-1.534,1.9-1.637v-.986h.428v.977a3.363,3.363,0,0,1,1.74.531l-.214.505a3.179,3.179,0,0,0-1.525-.5v2.271c.968.231,1.988.505,1.988,1.654,0,.831-.626,1.551-1.988,1.628m-.428-3.393v-2.142c-.883.077-1.277.531-1.277,1.071,0,.651.574.891,1.277,1.071m1.791,1.8c0-.677-.625-.908-1.362-1.088v2.142c.943-.068,1.362-.506,1.362-1.054" transform="translate(-136.006 -108.715)"/>
          <rect id="Rectangle_418" data-name="Rectangle 418" width="3.051" height="3.051" transform="translate(44.652 111.326)" fill="#e45c2b"/>
          <rect id="Rectangle_419" data-name="Rectangle 419" width="17.236" height="3.051" transform="translate(50.906 111.326)"/>
          <rect id="Rectangle_420" data-name="Rectangle 420" width="3.051" height="3.051" transform="translate(71.345 111.326)" fill="#ffbd26"/>
          <rect id="Rectangle_421" data-name="Rectangle 421" width="17.236" height="3.051" transform="translate(77.599 111.326)"/>
          <rect id="Rectangle_422" data-name="Rectangle 422" width="3.051" height="3.051" transform="translate(98.038 111.326)"/>
          <rect id="Rectangle_423" data-name="Rectangle 423" width="17.236" height="3.051" transform="translate(104.291 111.326)"/>
          <path id="Path_3915" data-name="Path 3915" d="M395.944,99.885l5.1-9.853.487-.941a12.44,12.44,0,0,1,2.893,19.691l-.731-.766Z" transform="translate(-247.333 -55.652)" fill="#ffbd26"/>
          <path id="Path_3916" data-name="Path 3916" d="M400.44,85.92,395.3,95.889l.965-11.087a11.394,11.394,0,0,1,4.178,1.118" transform="translate(-246.929 -52.973)"/>
          <path id="Path_3917" data-name="Path 3917" d="M363.321,104.018a11.379,11.379,0,0,1,10.333-16.692l-.516,11.387,7.96,8.351a11.383,11.383,0,0,1-17.777-3.045" transform="translate(-226.129 -54.547)" fill="#e45c2b"/>
          <rect id="Rectangle_424" data-name="Rectangle 424" width="2.135" height="2.135" transform="translate(165.805 36.586)" fill="#e6e6e6"/>
          <rect id="Rectangle_425" data-name="Rectangle 425" width="13.27" height="2.135" transform="translate(169.618 36.586)" fill="#e6e6e6"/>
          <rect id="Rectangle_426" data-name="Rectangle 426" width="19.829" height="2.135" transform="translate(157.873 68.77)" fill="#e6e6e6"/>
          <rect id="Rectangle_427" data-name="Rectangle 427" width="25.015" height="2.135" transform="translate(157.873 73.651)" fill="#e6e6e6"/>
          <rect id="Rectangle_428" data-name="Rectangle 428" width="2.135" height="2.135" transform="translate(165.805 42.077)" fill="#e6e6e6"/>
          <rect id="Rectangle_429" data-name="Rectangle 429" width="13.27" height="2.135" transform="translate(169.618 42.077)" fill="#e6e6e6"/>
          <rect id="Rectangle_430" data-name="Rectangle 430" width="2.135" height="2.135" transform="translate(165.805 47.568)" fill="#e6e6e6"/>
          <rect id="Rectangle_431" data-name="Rectangle 431" width="13.27" height="2.135" transform="translate(169.618 47.568)" fill="#e6e6e6"/>
          <rect id="Rectangle_432" data-name="Rectangle 432" width="18.761" height="8.694" transform="translate(135.146 68.77)" fill="#e6e6e6"/>
          <path id="Path_3918" data-name="Path 3918" d="M378.83,188.673v6.649H360.069v-.894c1.6-1.292,4.582-3.53,6.1-3.53,2.136,0,4.118,2.136,5.339,2.136,1.011,0,4.959-3.251,7.321-4.361" transform="translate(-224.923 -117.858)" fill="#ccc"/>
          <path id="Path_3919" data-name="Path 3919" d="M369.722,187.643a.763.763,0,1,1-.763-.763.763.763,0,0,1,.763.763" transform="translate(-230 -116.738)" fill="#ccc"/>
          <rect id="Rectangle_433" data-name="Rectangle 433" width="25.015" height="2.135" transform="translate(157.873 88.446)" fill="#e6e6e6"/>
          <rect id="Rectangle_434" data-name="Rectangle 434" width="11.745" height="2.135" transform="translate(157.873 93.327)" fill="#e6e6e6"/>
          <rect id="Rectangle_435" data-name="Rectangle 435" width="18.761" height="8.694" transform="translate(135.146 88.446)" fill="#e6e6e6"/>
          <path id="Path_3920" data-name="Path 3920" d="M378.83,241.1v6.649H360.069v-.894c1.6-1.292,4.582-3.53,6.1-3.53,2.136,0,4.118,2.136,5.339,2.136,1.011,0,4.959-3.25,7.321-4.361" transform="translate(-224.923 -150.604)" fill="#ccc"/>
          <path id="Path_3921" data-name="Path 3921" d="M369.722,240.067a.763.763,0,1,1-.763-.763.763.763,0,0,1,.763.763" transform="translate(-230 -149.485)" fill="#ccc"/>
          <rect id="Rectangle_436" data-name="Rectangle 436" width="23.49" height="2.135" transform="translate(157.873 108.123)" fill="#e6e6e6"/>
          <rect id="Rectangle_437" data-name="Rectangle 437" width="19.829" height="2.135" transform="translate(157.873 113.004)" fill="#e6e6e6"/>
          <rect id="Rectangle_438" data-name="Rectangle 438" width="18.761" height="8.694" transform="translate(135.146 108.122)" fill="#e6e6e6"/>
          <path id="Path_3922" data-name="Path 3922" d="M378.83,293.52v6.649H360.069v-.894c1.6-1.292,4.582-3.53,6.1-3.53,2.136,0,4.118,2.136,5.339,2.136,1.011,0,4.959-3.251,7.321-4.361" transform="translate(-224.923 -183.352)" fill="#ccc"/>
          <path id="Path_3923" data-name="Path 3923" d="M369.722,292.491a.763.763,0,1,1-.763-.763.763.763,0,0,1,.763.763" transform="translate(-230 -182.233)" fill="#ccc"/>
          <path id="Path_3924" data-name="Path 3924" d="M241.276,131.853H95.986A10.466,10.466,0,0,1,85.52,121.387V10.468A10.466,10.466,0,0,1,95.986,0H241.276a10.466,10.466,0,0,1,10.466,10.465V121.387a10.466,10.466,0,0,1-10.466,10.465M96.27,131.568H240.992A10.466,10.466,0,0,0,251.457,121.1V10.754A10.466,10.466,0,0,0,240.992.288H96.27A10.466,10.466,0,0,0,85.8,10.754V121.1A10.466,10.466,0,0,0,96.27,131.568" transform="translate(-53.421 -0.002)"/>
          <path id="Path_3925" data-name="Path 3925" d="M251.836,16.04H85.9v-6.3A9.353,9.353,0,0,1,95.251.383H242.482a9.353,9.353,0,0,1,9.353,9.353Z" transform="translate(-53.658 -0.239)" fill="#fff"/>
          <path id="Path_3926" data-name="Path 3926" d="M251.741,15.945H85.516V7.3a7.31,7.31,0,0,1,7.3-7.3H244.439a7.31,7.31,0,0,1,7.3,7.3ZM85.8,15.657H251.454V7.3A7.023,7.023,0,0,0,244.439.287H92.818A7.023,7.023,0,0,0,85.8,7.3Z" transform="translate(-53.419)"/>
          <path id="Path_3927" data-name="Path 3927" d="M111.595,18.729a1.281,1.281,0,1,1-1.281-1.281,1.281,1.281,0,0,1,1.281,1.281" transform="translate(-68.109 -10.899)"/>
          <path id="Path_3928" data-name="Path 3928" d="M125.247,18.729a1.281,1.281,0,1,1-1.281-1.281,1.281,1.281,0,0,1,1.281,1.281" transform="translate(-76.637 -10.899)"/>
          <path id="Path_3929" data-name="Path 3929" d="M138.9,18.729a1.281,1.281,0,1,1-1.281-1.281,1.281,1.281,0,0,1,1.281,1.281" transform="translate(-85.166 -10.899)"/>
          <path id="Path_3930" data-name="Path 3930" d="M186.51,739.193l-.375-.007c0-.271.432-27.388-5.516-54.154-3.1-13.939-9.448-22.1-14.229-26.485a29.746,29.746,0,0,0-9.733-6.248l.114-.357a30.089,30.089,0,0,1,9.855,6.313c4.828,4.426,11.237,12.649,14.359,26.7,5.958,26.811,5.529,53.971,5.525,54.242" transform="translate(-97.858 -407.247)"/>
          <path id="Path_3931" data-name="Path 3931" d="M207.018,787.5l-.375-.011c.743-25.514-10.415-57.574-10.527-57.894l.354-.125c.113.322,11.294,32.446,10.549,58.03" transform="translate(-122.506 -455.673)"/>
          <path id="Path_3932" data-name="Path 3932" d="M259.552,741.559c-.19-.06-.406-.128.325-6.571.822-7.238,2.537-19.709,5.1-37.067,3.5-23.753,8.653-35.614,12.354-41.381,4.044-6.3,7.236-6.929,7.37-6.952l.066.369c-.032.006-3.207.653-7.17,6.863-3.665,5.744-8.766,17.547-12.249,41.155-5.854,39.676-5.68,43.037-5.586,43.308a.161.161,0,0,0-.135-.089l-.01.148.194.1Z" transform="translate(-162.018 -405.775)"/>
          <path id="Path_3933" data-name="Path 3933" d="M278.69,788.062l-.37-.059c.025-.158,2.594-16.109,9.791-41.173,4.186-14.58,8.493-18.658,11.368-19.511a4.062,4.062,0,0,1,3.739.6l-.246.284a3.693,3.693,0,0,0-3.4-.524c-2.783.833-6.968,4.85-11.1,19.252-7.19,25.04-9.756,40.97-9.781,41.128" transform="translate(-173.857 -454.207)"/>
          <rect id="Rectangle_439" data-name="Rectangle 439" width="27.489" height="0.375" transform="translate(101.693 334.809) rotate(-84.204)"/>
          <path id="Path_3934" data-name="Path 3934" d="M254.629,756.217s3.581-10.954,11.8-4.213-5.477,35.181-11.8,36.234-17.064-19.8-15.589-27.387,4-11.8,8.637-10.955,6.952,6.32,6.952,6.32" transform="translate(-149.235 -468.369)" fill="#ffbd26"/>
          <path id="Path_3935" data-name="Path 3935" d="M340.158,713.1s6.273-5.269,6.775,5.018-6.022,20.826-8.28,20.826-.251-8.28-3.262-13.55-5.269-15.055,0-15.557,4.767,3.262,4.767,3.262" transform="translate(-207.533 -443.381)" fill="#ffbd26"/>
          <path id="Path_3936" data-name="Path 3936" d="M315.763,630.741s3.262-8.029,10.037,2.258,7.778,21.077,5.52,21.328-2.76-4.517-10.539-8.782-14.8-9.284-12.8-14.051,7.778-.753,7.778-.753" transform="translate(-192.171 -392.139)" fill="#ffbd26"/>
          <path id="Path_3937" data-name="Path 3937" d="M247.976,760.5l-.373-.04c7.507-69.973,4.124-79,2.321-79.631-.644-.226-1.252.709-1.258.719l-.317-.2c.031-.049.772-1.2,1.7-.873,4.049,1.414,3.313,29.834-2.071,80.025" transform="translate(-154.669 -425.035)"/>
          <path id="Path_3938" data-name="Path 3938" d="M232.076,605.576s6.524-7.026,11.793-3.262-.251,20.826-9.535,26.347-12.044,8.531-14.051,8.28-7.277-25.594-5.52-31.114,7.026-10.288,11.542-8.782,5.771,8.531,5.771,8.531" transform="translate(-133.935 -372.778)" fill="#ffbd26"/>
          <path id="Path_3939" data-name="Path 3939" d="M122.57,642.237s4.266-8.28,8.531-5.018-10.288,15.055-12.8,19.571-3.262,8.28-5.269,8.03-2.76-12.044,0-20.074,5.771-10.036,8.531-9.284,1,6.775,1,6.775" transform="translate(-69.486 -396.86)" fill="#ffbd26"/>
          <path id="Path_3940" data-name="Path 3940" d="M145.409,698.893s-.753-10.789,8.28-8.782,8.28,19.07,6.524,27.1-.753,13.048-4.266,14.3-14.3-9.284-18.066-17.313-5.52-18.819-1.255-20.575,8.782,5.269,8.782,5.269" transform="translate(-83.793 -430.933)" fill="#ffbd26"/>
          <path id="Path_3941" data-name="Path 3941" d="M236.476,918.192h-30.11L202.6,876.038H240.24Z" transform="translate(-126.559 -547.231)"/>
          <path id="Path_3942" data-name="Path 3942" d="M343.232,654.088a.188.188,0,0,1-.174-.118,39.772,39.772,0,0,0-3.888-7.068c-2.449-3.5-10.557-11.619-10.638-11.7a.188.188,0,0,1,.265-.265c.082.082,8.212,8.225,10.681,11.75a40.175,40.175,0,0,1,3.929,7.144.187.187,0,0,1-.1.244.183.183,0,0,1-.07.013" transform="translate(-205.188 -396.589)"/>
          <path id="Path_3943" data-name="Path 3943" d="M353.278,740.472a.185.185,0,0,1-.059-.01.188.188,0,0,1-.119-.237c.007-.021.7-2.183.7-7.758,0-5.611-.7-13.054-.71-13.128a.187.187,0,0,1,.169-.2.183.183,0,0,1,.2.169c.007.075.712,7.536.712,13.164,0,5.651-.691,7.788-.72,7.876a.188.188,0,0,1-.178.128" transform="translate(-220.563 -449.218)"/>
          <path id="Path_3944" data-name="Path 3944" d="M278.657,792.281h-.005a.188.188,0,0,1-.183-.193l.649-23.546a.2.2,0,0,1,.193-.182.188.188,0,0,1,.182.193l-.649,23.546a.187.187,0,0,1-.187.182" transform="translate(-173.95 -479.968)"/>
          <path id="Path_3945" data-name="Path 3945" d="M172.509,741.8c-.214,0-.629-.6-3.4-6.4-3.878-8.108-5.333-21.6-5.347-21.735a.188.188,0,1,1,.373-.039c.014.135,1.463,13.564,5.312,21.613,1.895,3.962,2.664,5.416,2.975,5.941a.188.188,0,0,1,.231.12c.05.151.134.4-.068.483a.206.206,0,0,1-.075.02" transform="translate(-102.295 -445.67)"/>
          <path id="Path_3946" data-name="Path 3946" d="M237.775,641.7h-.023a.188.188,0,0,1-.163-.209c0-.029.377-2.941,2.135-10.678a20.291,20.291,0,0,1,6.825-11.481.188.188,0,0,1,.218.305A19.908,19.908,0,0,0,240.09,630.9c-1.754,7.718-2.125,10.613-2.129,10.641a.188.188,0,0,1-.186.164" transform="translate(-148.413 -386.853)"/>
          <path id="Path_3947" data-name="Path 3947" d="M119.454,670.415a.181.181,0,0,1-.037,0,.188.188,0,0,1-.147-.221,41.361,41.361,0,0,1,2.856-8.214,21.5,21.5,0,0,1,1.254-2.327c.163-.263.328-.516.493-.759q.154-.226.307-.44a18.733,18.733,0,0,1,3.33-3.65.188.188,0,0,1,.231.3,18.725,18.725,0,0,0-3.256,3.572q-.15.21-.3.433-.243.358-.485.746a21.147,21.147,0,0,0-1.232,2.286,41,41,0,0,0-2.829,8.13.188.188,0,0,1-.184.151" transform="translate(-74.502 -409.007)"/>
          <path id="Path_3948" data-name="Path 3948" d="M343.1,643.486a.186.186,0,0,1-.084-.02,5.675,5.675,0,0,0-4.807-.355.188.188,0,1,1-.168-.336,5.965,5.965,0,0,1,5.142.355.188.188,0,0,1-.084.355" transform="translate(-211.101 -401.265)"/>
          <path id="Path_3949" data-name="Path 3949" d="M339,654.743a.188.188,0,0,1-.187-.169c-.362-3.621,1.42-4.907,1.5-4.96a.188.188,0,0,1,.215.307c-.017.012-1.676,1.229-1.337,4.615a.188.188,0,0,1-.168.205H339" transform="translate(-211.614 -405.771)"/>
          <path id="Path_3950" data-name="Path 3950" d="M358.013,664.911a.186.186,0,0,1-.132-.055,3.915,3.915,0,0,0-2.7-.894.188.188,0,1,1-.025-.375,4.237,4.237,0,0,1,2.988,1,.188.188,0,0,1-.133.32" transform="translate(-221.746 -414.518)"/>
          <path id="Path_3951" data-name="Path 3951" d="M263.814,629.169a.187.187,0,0,1-.181-.137c-1.708-6.146-6.667-4.9-6.877-4.843a.188.188,0,1,1-.1-.363c.055-.015,5.53-1.394,7.336,5.105a.188.188,0,0,1-.131.231.2.2,0,0,1-.05.007" transform="translate(-160.239 -389.6)"/>
          <path id="Path_3952" data-name="Path 3952" d="M239.6,625.214a.187.187,0,0,1-.123-.046,7.616,7.616,0,0,0-8.246-.511.188.188,0,1,1-.168-.336,7.99,7.99,0,0,1,8.66.564.188.188,0,0,1-.123.329" transform="translate(-144.273 -389.372)"/>
          <path id="Path_3953" data-name="Path 3953" d="M253.2,641.773a.188.188,0,0,1-.184-.151,5.2,5.2,0,0,0-2.112-3.557,4.528,4.528,0,0,0-3.182-.561.188.188,0,0,1-.087-.365,4.852,4.852,0,0,1,3.471.609,5.555,5.555,0,0,1,2.278,3.8.188.188,0,0,1-.184.224" transform="translate(-154.598 -397.94)"/>
          <path id="Path_3954" data-name="Path 3954" d="M231.148,652.983l-.035,0a.188.188,0,0,1-.15-.219,3.953,3.953,0,0,1,1.59-2.689,4.154,4.154,0,0,1,2.895-.571.188.188,0,0,1-.074.368,3.84,3.84,0,0,0-2.614.516,3.593,3.593,0,0,0-1.429,2.443.188.188,0,0,1-.184.154" transform="translate(-144.273 -405.686)"/>
          <path id="Path_3955" data-name="Path 3955" d="M242.829,668.3a.176.176,0,0,1-.031,0,.188.188,0,0,1-.154-.216c.326-1.954-2.5-2.984-2.529-2.994a.188.188,0,1,1,.126-.354c.129.046,3.15,1.149,2.773,3.41a.188.188,0,0,1-.185.157" transform="translate(-149.914 -415.23)"/>
          <path id="Path_3956" data-name="Path 3956" d="M358.132,730.54a.187.187,0,0,1-.178-.128,3.911,3.911,0,0,0-3.72-2.913.188.188,0,1,1-.02-.375,4.291,4.291,0,0,1,4.1,3.169.188.188,0,0,1-.119.237.185.185,0,0,1-.059.01" transform="translate(-221.154 -454.209)"/>
          <path id="Path_3957" data-name="Path 3957" d="M347.546,740.577a.188.188,0,0,1-.187-.169,5.229,5.229,0,0,1,2.59-5.161.188.188,0,0,1,.168.336,4.769,4.769,0,0,0-2.384,4.788.188.188,0,0,1-.168.206h-.019" transform="translate(-216.964 -459.272)"/>
          <path id="Path_3958" data-name="Path 3958" d="M288.557,780.736a.187.187,0,0,1-.145-.068A6.418,6.418,0,0,0,280.476,779a.188.188,0,0,1-.181-.329,6.8,6.8,0,0,1,8.407,1.759.188.188,0,0,1-.144.308" transform="translate(-175.03 -485.929)"/>
          <path id="Path_3959" data-name="Path 3959" d="M257.665,790.211a.188.188,0,0,1-.17-.266c2.177-4.716,8.49-2.713,8.554-2.692a.188.188,0,0,1-.117.357c-.06-.02-6.06-1.92-8.1,2.492a.188.188,0,0,1-.171.109" transform="translate(-160.837 -491.495)"/>
          <path id="Path_3960" data-name="Path 3960" d="M285.885,802.019a.188.188,0,0,1-.18-.136c-1.355-4.708-5.944-3.617-6.138-3.569a.188.188,0,1,1-.092-.364c.052-.013,5.135-1.223,6.59,3.829a.187.187,0,0,1-.128.232.179.179,0,0,1-.052.008" transform="translate(-174.49 -498.368)"/>
          <path id="Path_3961" data-name="Path 3961" d="M263.345,813.967a.173.173,0,0,1-.05-.007.187.187,0,0,1-.132-.23c1.1-4.036,5.861-2.987,5.908-2.976a.188.188,0,0,1-.084.366c-.181-.042-4.456-.977-5.462,2.709a.188.188,0,0,1-.181.138" transform="translate(-164.385 -506.369)"/>
          <path id="Path_3962" data-name="Path 3962" d="M282.688,826.787a.188.188,0,0,1-.168-.1c-.674-1.349-3.059-2.565-3.083-2.577a.188.188,0,1,1,.169-.335c.1.052,2.52,1.284,3.25,2.744a.188.188,0,0,1-.084.252.186.186,0,0,1-.084.02" transform="translate(-174.49 -514.569)"/>
          <path id="Path_3963" data-name="Path 3963" d="M175.283,722.4a.186.186,0,0,1-.111-.037c-2.41-1.775-4.585-2.486-6.464-2.114a4.706,4.706,0,0,0-2.947,1.928.188.188,0,1,1-.321-.194,5.022,5.022,0,0,1,3.2-2.1c1.987-.394,4.262.34,6.76,2.18a.188.188,0,0,1-.111.339" transform="translate(-103.328 -449.619)"/>
          <path id="Path_3964" data-name="Path 3964" d="M154.48,739.867a.176.176,0,0,1-.031,0,.187.187,0,0,1-.154-.216,5.194,5.194,0,0,1,5.016-4.42.188.188,0,0,1,0,.375,4.746,4.746,0,0,0-4.646,4.107.188.188,0,0,1-.185.157" transform="translate(-96.381 -459.272)"/>
          <path id="Path_3965" data-name="Path 3965" d="M176.821,749.763a.188.188,0,0,1-.115-.039,4.474,4.474,0,0,0-5.68-.233.188.188,0,0,1-.24-.289,4.917,4.917,0,0,1,6.151.226.188.188,0,0,1-.116.336" transform="translate(-106.642 -467.391)"/>
          <path id="Path_3966" data-name="Path 3966" d="M170.508,768.937a.188.188,0,0,1-.186-.161,4.361,4.361,0,0,1,1.887-4.046.188.188,0,1,1,.2.316,3.976,3.976,0,0,0-1.717,3.676.188.188,0,0,1-.16.212l-.027,0" transform="translate(-106.369 -477.683)"/>
          <path id="Path_3967" data-name="Path 3967" d="M138.188,663.068l-.027,0a.188.188,0,0,1-.16-.212,2.627,2.627,0,0,0-1.7-2.993.188.188,0,0,1,.116-.357,3.049,3.049,0,0,1,1.953,3.4.188.188,0,0,1-.186.161" transform="translate(-85.064 -411.964)"/>
          <path id="Path_3968" data-name="Path 3968" d="M118.507,665.708a.187.187,0,0,1-.133-.32,3.924,3.924,0,0,1,5-.332.188.188,0,0,1-.214.309,3.543,3.543,0,0,0-4.516.289.188.188,0,0,1-.133.055" transform="translate(-73.91 -414.96)"/>
          <path id="Path_3969" data-name="Path 3969" d="M128.164,677.893l-.027,0a.188.188,0,0,1-.16-.212c.324-2.269-1.366-2.6-1.439-2.611a.188.188,0,0,1-.152-.217.186.186,0,0,1,.217-.152c.021,0,2.123.4,1.746,3.034a.188.188,0,0,1-.186.161" transform="translate(-78.948 -421.459)"/>
          <path id="Path_3970" data-name="Path 3970" d="M881.856,911.67c2.7,10.2,11.8,17.5,20.325,17.5s13.24-8.27,10.538-18.471-11.8-18.471-20.326-18.471-13.24,9.237-10.537,19.438" transform="translate(-550.39 -557.347)"/>
          <path id="Path_3971" data-name="Path 3971" d="M889.941,909.635c2.7,10.2,11.8,18.471,20.325,18.471s13.24-8.269,10.537-18.471-11.8-18.471-20.325-18.471-13.24,8.269-10.537,18.471" transform="translate(-555.44 -556.68)" fill="#e45c2b"/>
          <path id="Path_3972" data-name="Path 3972" d="M916.007,931.624a13.4,13.4,0,0,1-8.809-3.817,18.919,18.919,0,0,1-5.519-9.035c-1.059-4-.525-7.775,1.466-10.362a8.05,8.05,0,0,1,6.543-3.13A13.4,13.4,0,0,1,918.5,909.1a18.912,18.912,0,0,1,5.519,9.035c1.06,4,.525,7.775-1.466,10.363a8.051,8.051,0,0,1-6.543,3.129m-6.319-23.848a5.535,5.535,0,0,0-4.565,2.156c-1.515,1.968-1.891,4.957-1.031,8.2,1.606,6.063,6.952,11,11.915,11a5.535,5.535,0,0,0,4.565-2.156c1.515-1.968,1.891-4.957,1.031-8.2-1.606-6.063-6.952-11-11.915-11" transform="translate(-562.916 -565.498)" fill="#fff"/>
          <path id="Path_3973" data-name="Path 3973" d="M925.361,936.827c-2.455,0-4.963-2.205-5.709-5.02a4.889,4.889,0,0,1,.646-4.266,3.565,3.565,0,0,1,2.895-1.394c2.455,0,4.963,2.205,5.709,5.02a4.889,4.889,0,0,1-.646,4.266,3.567,3.567,0,0,1-2.895,1.394m-3.3-5.659c.447,1.685,1.987,3.163,3.3,3.163a1.08,1.08,0,0,0,.917-.42,2.492,2.492,0,0,0,.211-2.1c-.447-1.685-1.987-3.163-3.3-3.163a1.081,1.081,0,0,0-.917.42,2.493,2.493,0,0,0-.211,2.1" transform="translate(-574.344 -578.533)" fill="#fff"/>
          <path id="Path_3974" data-name="Path 3974" d="M948.4,885.066l-1.755-3.4,3.467-7.084,1.67,3.484-.2.1-1.468-3.062-3.211,6.561,1.7,3.294Z" transform="translate(-591.335 -546.324)"/>
          <path id="Path_3975" data-name="Path 3975" d="M952.1,890.839l0-.227,3.372-.036,3.387-6.48-3.575.147-.009-.227,3.967-.163L955.6,890.8Z" transform="translate(-594.742 -552.113)"/>
          <rect id="Rectangle_440" data-name="Rectangle 440" width="27.494" height="0.681" transform="matrix(0.433, -0.901, 0.901, 0.433, 349.837, 353.159)"/>
          <path id="Path_3976" data-name="Path 3976" d="M641.035,220.632v26.723a5.97,5.97,0,0,1-5.969,5.968H579.8a5.97,5.97,0,0,1-5.969-5.968V220.632a5.97,5.97,0,0,1,5.969-5.969h55.271a5.97,5.97,0,0,1,5.969,5.969" transform="translate(-358.45 -134.093)" fill="#fff"/>
          <path id="Path_3977" data-name="Path 3977" d="M634.754,253.2H579.483a6.163,6.163,0,0,1-6.156-6.156V220.32a6.163,6.163,0,0,1,6.156-6.156h55.271a6.163,6.163,0,0,1,6.156,6.156v26.723a6.163,6.163,0,0,1-6.156,6.156m-55.271-38.659a5.787,5.787,0,0,0-5.781,5.781v26.723a5.787,5.787,0,0,0,5.781,5.781h55.271a5.787,5.787,0,0,0,5.781-5.781V220.32a5.787,5.787,0,0,0-5.781-5.781Z" transform="translate(-358.138 -133.781)"/>
          <path id="Path_3978" data-name="Path 3978" d="M641.035,220.632v1.763H573.827v-1.763a5.97,5.97,0,0,1,5.969-5.969h55.271a5.97,5.97,0,0,1,5.969,5.969" transform="translate(-358.45 -134.093)" fill="#e6e6e6"/>
          <path id="Path_3979" data-name="Path 3979" d="M640.91,222.27H573.327v-1.951a6.163,6.163,0,0,1,6.156-6.156h55.271a6.163,6.163,0,0,1,6.156,6.156Zm-67.208-.375h66.833v-1.576a5.788,5.788,0,0,0-5.781-5.781H579.483a5.788,5.788,0,0,0-5.781,5.781Z" transform="translate(-358.138 -133.78)"/>
          <path id="Path_3980" data-name="Path 3980" d="M603.95,260.229a8.327,8.327,0,1,1-8.327-8.327,8.312,8.312,0,0,1,8.327,8.327" transform="translate(-366.865 -157.355)" fill="#e45c2b"/>
          <path id="Path_3981" data-name="Path 3981" d="M607.7,263.888a2.082,2.082,0,1,1-2.082-2.082,2.082,2.082,0,0,1,2.082,2.082" transform="translate(-377.01 -163.541)" fill="#fff"/>
          <path id="Path_3982" data-name="Path 3982" d="M605.822,281.079a8.323,8.323,0,0,1-10.016-.19c.219-.928.248-2.9.725-3.887a4.861,4.861,0,0,1,8.524.009c.508,1.055.548,3.1.767,4.068" transform="translate(-372.18 -171.46)" fill="#fff"/>
          <rect id="Rectangle_441" data-name="Rectangle 441" width="25.872" height="0.751" transform="translate(250.319 96.997)"/>
          <rect id="Rectangle_442" data-name="Rectangle 442" width="17.545" height="0.751" transform="translate(258.646 102.053)"/>
          <rect id="Rectangle_443" data-name="Rectangle 443" width="30.035" height="0.751" transform="translate(246.156 107.108)"/>
        </g>
      </g>
    </g>
  </g>
</svg>
