<svg xmlns="http://www.w3.org/2000/svg" width="80" height="61.313" viewBox="0 0 80 61.313">
  <path id="Path_3834" data-name="Path 3834" d="M333.19,231.4c-2.5.4-3.771,2.246-3.771,5.49,0,3.264,1.7,5.447,4.3,5.447,1.212,0,2.314-.4,4.63-1.539v2.64A14.289,14.289,0,0,1,331.7,245.1a7.147,7.147,0,0,1-5.523-2.063,7.47,7.47,0,0,1-2.141-5.414c0-4.671,3.458-7.832,8.509-7.832,3.355,0,5.662,1.533,5.662,3.784a2.436,2.436,0,0,1-2.667,2.447,4.39,4.39,0,0,1-2.35-.714Zm-12.315,6.231c2.237-2.821,3.028-3.958,3.028-5.343a2.49,2.49,0,0,0-2.557-2.489,2.967,2.967,0,0,0-2.107.867v5.746l-3.666,4.885V230.156h-3.486l-5.794,9.605v-9.605h-2l-5.26,1.282v1.344l2.869.291v11.78h3.708l5.557-9.133v9.133h4.061Zm-32.92-4.477a14.553,14.553,0,0,1,1.677-.153c2.418,0,3.728,1.607,3.728,4.629,0,3.57-1.6,5.432-4.588,5.432-.249,0-.422,0-.817-.019Zm0,11.559a22.965,22.965,0,0,0,2.461.145c4.969,0,8.122-3.18,8.122-7.907,0-4.089-2.363-7.041-5.565-7.041-1.386,0-2.315.285-5.018,1.893v-1.968h-1.5l-5.771,1.753V233h2.39v16.48l-2.15.535v1.364h9.433v-1.364l-2.4-.535Zm27.625-23.3h14.441V217.8H315.582Zm45.106-11.651v8.04H330.023V190.063h15.632v3.231H348.9V198.1h7.715v11.656ZM348.9,199.231v10.524h6.584V199.231Zm-17.744,10.524h7.558v-2.9h-7.558Zm0-11.656h13.37v-3.674h-13.37Zm0,1.131v6.5h8.688v4.028h4.681V199.231Zm0,17.433h7.558v-5.777h-7.558Zm8.689,0h4.681v-5.777h-4.681Zm5.812,0h2.112v-5.777h-2.112Zm2.112-6.909V199.231h-2.112v10.524Zm-2.112-15.33V198.1h2.112v-3.674Zm-14.5-1.132h13.37v-2.1h-13.37Zm24.328,23.37v-5.777H348.9v5.777Zm4.074-5.777h-2.943v5.777h2.943Z" transform="translate(-280.688 -190.063)" fill="#030504"/>
</svg>
