<?xml version="1.0" encoding="UTF-8"?>
<svg width="24px" height="24px" viewBox="0 0 24 24" version="1.1" xmlns="http://www.w3.org/2000/svg" xmlns:xlink="http://www.w3.org/1999/xlink">
    <title>Icon/Outline/view-off-outline</title>
    <g id="Icon/Outline/view-off-outline" stroke="none" stroke-width="1" fill="none" fill-rule="evenodd">
        <g id="Icon" fill="#474747" fill-rule="nonzero">
            <g id="Group">
                <path d="M1.06333333,0 L23.9766667,22.8333333 L23.4466667,23.3633333 L22.9133333,23.8933333 L0,1.06 L0.533333333,0.53 L1.06333333,0 Z M4.147,7.31 L5.21,8.369 L2.17814547,11.2496438 L7.37616266,16.1865297 C9.27638879,17.9918724 12.0755626,18.4492765 14.4313783,17.5586732 L15.5766435,18.7005323 C12.5809598,20.1228604 8.84109124,19.6473471 6.343,17.2739923 L0,11.2496438 L4.147,7.31 Z M17.657,5.22529536 L24,11.2496438 L18.984,16.013 L17.896,14.978 L21.8218545,11.2496438 L16.6240112,6.31292307 C14.3191919,4.1238904 10.6917443,3.91723529 8.1372002,5.69295775 L7.03137531,4.64196273 C10.1717059,2.27298412 14.7532585,2.46742833 17.657,5.22529536 Z M8.25304794,11.4025903 L11.86,14.995 L11.8008411,14.994802 C9.87280897,14.8939139 8.33045432,13.3367531 8.25304794,11.4025903 Z M12,7.5 C14.0710714,7.5 15.75,9.17892855 15.75,11.25 C15.75,11.7529855 15.6509732,12.2328415 15.4713521,12.6711355 L14.236623,11.4962528 C14.2454629,11.4153668 14.25,11.3332044 14.25,11.25 C14.25,10.009125 13.240875,9 12,9 C11.8780784,9 11.7583942,9.00974204 11.6416846,9.02848875 L10.4078657,7.85378356 C10.8911406,7.62683401 11.4307581,7.5 12,7.5 Z" id="Combined-Shape"></path>
            </g>
        </g>
    </g>
</svg>