<?xml version="1.0" encoding="UTF-8"?>
<svg width="24px" height="24px" viewBox="0 0 24 24" version="1.1" xmlns="http://www.w3.org/2000/svg" xmlns:xlink="http://www.w3.org/1999/xlink">
    <title>Icon/Outline/view-outline</title>
    <g id="Icon/Outline/view-outline" stroke="none" stroke-width="1" fill="none" fill-rule="evenodd">
        <g id="Group" transform="translate(-0.000000, -0.000000)" fill="#474747" fill-rule="nonzero">
            <g id="view" transform="translate(0.000000, 3.750000)">
                <path d="M17.6570001,2.22529537 L24,8.24964386 L17.6570001,14.2739924 C14.533,17.2420026 9.46700006,17.2420026 6.34300002,14.2739924 L0,8.24964386 L6.34300002,2.22529537 C9.46700006,-0.741765123 14.533,-0.741765123 17.6570001,2.22529537 Z M21.8218546,8.24964386 L16.6240112,3.31292308 C14.0789236,0.895692311 9.92107654,0.895692311 7.37598889,3.31292308 L2.17814548,8.24964386 L7.37616269,13.1865298 C9.92120389,15.6044902 14.0787962,15.6044902 16.6240112,13.1863647 L21.8218546,8.24964386 Z M12.0000001,4.50000002 C14.0710715,4.50000002 15.75,6.17892858 15.75,8.25000003 C15.75,10.3210715 14.0710715,12 12.0000001,12 C9.92892859,12 8.25000003,10.3210715 8.25000003,8.25000003 C8.25000003,6.17892858 9.92892859,4.50000002 12.0000001,4.50000002 Z M12.0000001,10.5 C13.2408751,10.5 14.25,9.49087504 14.25,8.25000003 C14.25,7.00912503 13.2408751,6.00000003 12.0000001,6.00000003 C10.759125,6.00000003 9.75000004,7.00912503 9.75000004,8.25000003 C9.75000004,9.49087504 10.759125,10.5 12.0000001,10.5 Z" id="Combined-Shape"></path>
            </g>
        </g>
    </g>
</svg>